<?xml version="1.0" standalone="no"?><!DOCTYPE svg PUBLIC "-//W3C//DTD SVG 1.1//EN" "http://www.w3.org/Graphics/SVG/1.1/DTD/svg11.dtd"><svg t="1713749427353" class="icon" viewBox="0 0 1024 1024" version="1.1" xmlns="http://www.w3.org/2000/svg" p-id="1482" xmlns:xlink="http://www.w3.org/1999/xlink" width="200" height="200"><path d="M256 128a64 64 0 1 1 128 0 64 64 0 0 1-128 0z m384 0a64 64 0 1 1 128 0 64 64 0 0 1-128 0zM256 384a64 64 0 1 1 128 0 64 64 0 0 1-128 0z m384 0a64 64 0 1 1 128 0 64 64 0 0 1-128 0z m-384 256a64 64 0 1 1 128 0 64 64 0 0 1-128 0z m384 0a64 64 0 1 1 128 0 64 64 0 0 1-128 0z m-320 192a64 64 0 1 0 0 128 64 64 0 0 0 0-128z m320 64a64 64 0 1 1 128 0 64 64 0 0 1-128 0z" p-id="1483"></path></svg>